<!--?xml version="1.0" standalone="no"?-->
              <svg id="sw-js-blob-svg" viewBox="0 0 100 100" xmlns="http://www.w3.org/2000/svg" version="1.1">
                    <defs> 
                        <linearGradient id="sw-gradient" x1="0" x2="1" y1="1" y2="0">
                            <stop id="stop1" stop-color="rgba(191.62, 88.73, 40.034, 1)" offset="0%"></stop>
                            <stop id="stop2" stop-color="rgba(251, 168, 31, 1)" offset="100%"></stop>
                        </linearGradient>
                    </defs>
                <path fill="url(#sw-gradient)" d="M19.6,-33.9C25.6,-30.5,30.9,-25.7,34.5,-19.8C38.2,-13.9,40.2,-7,40.8,0.4C41.5,7.7,40.7,15.4,37.8,22.6C34.9,29.8,29.9,36.5,23.3,39.6C16.6,42.7,8.3,42.1,0.4,41.4C-7.5,40.7,-15,39.9,-20.9,36.3C-26.7,32.8,-30.8,26.5,-33.4,19.9C-36,13.4,-37,6.7,-37.8,-0.4C-38.5,-7.6,-39,-15.2,-36.5,-21.8C-33.9,-28.4,-28.4,-34,-21.8,-37.1C-15.2,-40.2,-7.6,-40.8,-0.4,-40.1C6.8,-39.4,13.6,-37.3,19.6,-33.9Z" width="100%" height="100%" transform="translate(50 50)" stroke-width="0" style="transition: all 0.3s ease 0s;" stroke="url(#sw-gradient)"></path>
              </svg>